<?xml version="1.0" encoding="UTF-8" standalone="no"?>
<!-- Created with Inkscape (http://www.inkscape.org/) -->

<svg
   xmlns:dc="http://purl.org/dc/elements/1.1/"
   xmlns:cc="http://creativecommons.org/ns#"
   xmlns:rdf="http://www.w3.org/1999/02/22-rdf-syntax-ns#"
   xmlns:svg="http://www.w3.org/2000/svg"
   xmlns="http://www.w3.org/2000/svg"
   xmlns:sodipodi="http://sodipodi.sourceforge.net/DTD/sodipodi-0.dtd"
   xmlns:inkscape="http://www.inkscape.org/namespaces/inkscape"
   width="2.0287893in"
   height="2.0287893in"
   viewBox="0 0 51.531249 51.531249"
   version="1.1"
   id="svg2036"
   inkscape:version="0.92.2 (5c3e80d, 2017-08-06)"
   sodipodi:docname="Microwave Wheel Adapter.svg">
  <defs
     id="defs2030" />
  <sodipodi:namedview
     id="base"
     pagecolor="#ffffff"
     bordercolor="#666666"
     borderopacity="1.0"
     inkscape:pageopacity="0.0"
     inkscape:pageshadow="2"
     inkscape:zoom="1.4"
     inkscape:cx="220.22273"
     inkscape:cy="41.76352"
     inkscape:document-units="in"
     inkscape:current-layer="layer1"
     showgrid="false"
     units="in"
     fit-margin-top="0"
     fit-margin-left="0"
     fit-margin-right="0"
     fit-margin-bottom="0"
     inkscape:window-width="1440"
     inkscape:window-height="836"
     inkscape:window-x="-4"
     inkscape:window-y="-4"
     inkscape:window-maximized="1" />
  <metadata
     id="metadata2033">
    <rdf:RDF>
      <cc:Work
         rdf:about="">
        <dc:format>image/svg+xml</dc:format>
        <dc:type
           rdf:resource="http://purl.org/dc/dcmitype/StillImage" />
        <dc:title></dc:title>
      </cc:Work>
    </rdf:RDF>
  </metadata>
  <g
     inkscape:label="Layer 1"
     inkscape:groupmode="layer"
     id="layer1"
     transform="translate(-64.07801,-136.31708)">
    <g
       transform="translate(528.10673,-68.820402)"
       id="g1954">
      <g
         transform="rotate(-60,-194.89347,523.22914)"
         id="g1052">
        <path
           style="fill:none;fill-opacity:1;stroke:#ff0000;stroke-width:0.05;stroke-linecap:butt;stroke-linejoin:miter;stroke-miterlimit:4;stroke-dasharray:none;stroke-opacity:1"
           d="m -70.349367,154.42499 c 0,0 0,0 -2.33175,-6.13256 -0.30921,-0.81323 0.86791,-1.94733 1.73793,-1.94733 4.10031,0 10.351865,0 13.697568,0 1.261281,0 3.596317,0.83235 3.194528,2.02792 -0.755487,2.24805 -2.298329,6.05197 -2.298329,6.05197"
           id="path834-6-0-7"
           inkscape:connector-curvature="0" />
        <path
           style="fill:none;fill-opacity:1;stroke:#ff0000;stroke-width:0.05;stroke-linecap:butt;stroke-linejoin:miter;stroke-miterlimit:4;stroke-dasharray:none;stroke-opacity:1"
           d="m -49.546209,166.26644 c 0,0 0,0 5.919142,0.57208 1.368724,0.13229 1.424534,2.86807 0.736982,4.05895 -2.097575,3.6331 -4.203863,7.2813 -6.065519,10.50578 -0.6864,1.18888 -2.816767,2.92488 -3.676979,1.85501 -3.913626,-4.86748 -3.913626,-4.86748 -3.913626,-4.86748"
           id="path834-5-9"
           inkscape:connector-curvature="0" />
        <path
           style="fill:none;fill-opacity:1;stroke:#ff0000;stroke-width:0.05;stroke-linecap:butt;stroke-linejoin:miter;stroke-miterlimit:4;stroke-dasharray:none;stroke-opacity:1"
           d="m -70.195057,178.41624 c 0,0 0,1e-5 -3.77476,4.72816 -0.74195,0.92934 -2.82252,0.005 -3.41711,-1.02506 -2.41958,-4.19084 -3.94327,-6.82995 -6.38189,-11.05376 -0.6592,-1.14177 -0.72327,-3.72459 0.58172,-3.91221 5.99204,-0.86148 5.99204,-0.86148 5.99204,-0.86148"
           id="path834-8-8-7"
           inkscape:connector-curvature="0" />
        <path
           style="fill:none;fill-opacity:1;stroke:#ff0000;stroke-width:0.05;stroke-linecap:butt;stroke-linejoin:miter;stroke-miterlimit:4;stroke-dasharray:none;stroke-opacity:1"
           d="m -49.546209,166.26643 -1.871213,-0.50139 c 0,0 -0.03858,-0.47411 -0.06464,-0.71048 -0.02326,-0.21096 -0.0501,-0.42157 -0.08185,-0.63142 -0.03077,-0.20338 -0.06273,-0.40679 -0.105238,-0.60804 -0.03986,-0.18868 -0.08855,-0.37549 -0.140316,-0.56126 -0.05692,-0.20428 -0.119824,-0.40693 -0.18709,-0.60804 -0.06179,-0.18474 -0.198781,-0.54957 -0.198781,-0.54957 0,0 -0.152113,-0.36477 -0.229634,-0.54654 -0.07894,-0.18508 -0.147855,-0.37498 -0.239779,-0.55397 -0.264308,-0.51463 -0.567785,-1.00978 -0.892968,-1.48828 -0.183765,-0.27041 -0.387825,-0.52688 -0.596205,-0.77881 -0.217291,-0.2627 -0.440079,-0.52187 -0.681119,-0.76297"
           id="path931-98-8"
           inkscape:connector-curvature="0"
           sodipodi:nodetypes="ccaaaaacaaaac" />
        <path
           style="fill:none;fill-opacity:1;stroke:#ff0000;stroke-width:0.05;stroke-linecap:butt;stroke-linejoin:miter;stroke-miterlimit:4;stroke-dasharray:none;stroke-opacity:1"
           d="m -56.349376,154.42498 -0.501388,1.87122 c 0,0 0.391306,0.27045 0.582974,0.41121 0.348831,0.25394 0.675701,0.52075 0.979842,0.78177 0.143453,0.12887 0.317905,0.33877 0.452906,0.47648"
           id="path931-9-9-5-1-5"
           inkscape:connector-curvature="0"
           sodipodi:nodetypes="ccccc" />
        <path
           style="fill:none;fill-opacity:1;stroke:#ff0000;stroke-width:0.05;stroke-linecap:butt;stroke-linejoin:miter;stroke-miterlimit:4;stroke-dasharray:none;stroke-opacity:1"
           d="m -70.349371,154.42498 0.501387,1.87121 c 0,0 -0.391298,0.27047 -0.582973,0.41122 -0.171036,0.12564 -0.340035,0.25418 -0.505896,0.3866 -0.16071,0.12836 -0.320926,0.25772 -0.473958,0.39516 -0.143454,0.12887 -0.28091,0.26443 -0.415914,0.40214 -0.148412,0.15146 -0.292504,0.30724 -0.433028,0.46605 -0.129131,0.14586 -0.376555,0.44693 -0.376555,0.44693 0,0 -0.239886,0.3141 -0.3585,0.47214 -0.120834,0.16089 -0.250776,0.31556 -0.359836,0.48466 -0.313514,0.48622 -0.590626,0.99659 -0.842398,1.51747 -0.142335,0.29433 -0.262402,0.5993 -0.376362,0.90574 -0.118884,0.31951 -0.231917,0.64205 -0.320193,0.97135 -0.132948,0.49593 -0.314183,1.50796 -0.314183,1.50796"
           id="path931-9-3-9"
           inkscape:connector-curvature="0"
           sodipodi:nodetypes="ccaaaaacaaaaac" />
        <path
           style="fill:none;fill-opacity:1;stroke:#ff0000;stroke-width:0.05;stroke-linecap:butt;stroke-linejoin:miter;stroke-miterlimit:4;stroke-dasharray:none;stroke-opacity:1"
           d="m -77.195055,166.29189 1.871223,-0.50139 c 0,0 0.08998,-0.89052 0.116052,-1.12689"
           id="path931-9-9-5-2-6-8"
           inkscape:connector-curvature="0"
           sodipodi:nodetypes="ccc" />
        <path
           style="fill:none;fill-opacity:1;stroke:#ff0000;stroke-width:0.05;stroke-linecap:butt;stroke-linejoin:miter;stroke-miterlimit:4;stroke-dasharray:none;stroke-opacity:1"
           d="m -70.195058,178.41624 1.369821,-1.36982 c 0,0 0.429882,0.20365 0.647614,0.29926 0.561449,0.25177 1.171713,0.46819 1.723172,0.61682 0.413198,0.10723 0.768185,0.172 1.195457,0.24463 0,0 0.391954,0.0507 0.588135,0.0744"
           id="path931-9-9-2-2"
           inkscape:connector-curvature="0"
           sodipodi:nodetypes="cccccc" />
        <path
           style="fill:none;fill-opacity:1;stroke:#ff0000;stroke-width:0.05;stroke-linecap:butt;stroke-linejoin:miter;stroke-miterlimit:4;stroke-dasharray:none;stroke-opacity:1"
           d="m -56.546209,178.39078 -1.369827,-1.36983 c 0,0 -0.429873,0.20366 -0.647608,0.29927 -0.194324,0.0853 -0.39015,0.16738 -0.587759,0.2448 -0.191508,0.075 -0.383655,0.14907 -0.579193,0.21288 -0.183331,0.0598 -0.369464,0.11107 -0.556224,0.15913 -0.205376,0.0528 -0.412321,0.0997 -0.620126,0.14198 -0.190885,0.0389 -0.57533,0.10264 -0.57533,0.10264 0,0 -0.391951,0.0507 -0.588135,0.0744 -0.199751,0.0242 -0.398645,0.0599 -0.599636,0.0693 -0.666374,0.0311 -1.423831,-10e-4 -2.000812,-0.0438"
           id="path931-9-9-5-2-3-9-2"
           inkscape:connector-curvature="0"
           sodipodi:nodetypes="ccaaaaacaac" />
      </g>
      <path
         id="path1130-9"
         d="m -412.52247,230.90311 a 25.740625,25.740625 0 0 1 -25.74063,25.74062 25.740625,25.740625 0 0 1 -25.74062,-25.74062 25.740625,25.740625 0 0 1 25.74062,-25.74063 25.740625,25.740625 0 0 1 25.74063,25.74063 z"
         style="fill:none;fill-opacity:1;fill-rule:evenodd;stroke:#ff0000;stroke-width:0.05;stroke-miterlimit:4;stroke-dasharray:none;stroke-opacity:1"
         inkscape:connector-curvature="0" />
    </g>
    <circle
       style="opacity:1;fill:none;fill-opacity:1;fill-rule:evenodd;stroke:#ff0000;stroke-width:0.05;stroke-miterlimit:4;stroke-dasharray:none;stroke-opacity:1"
       id="path5052"
       cx="89.843636"
       cy="162.0827"
       r="0.61000001" />
  </g>
</svg>
